<defs>
<font horiz-adv-x="1264" ><font-face
    font-family="trocchi"
    units-per-em="2048"
    panose-1="0 0 0 0 0 0 0 0 0 0"
    ascent="2085"
    descent="-576"
    alphabetic="0" />
<missing-glyph horiz-adv-x="61" />
<glyph unicode=" " glyph-name="space" horiz-adv-x="480" />
<glyph unicode="!" glyph-name="exclam" horiz-adv-x="856" d="M471 451H399L305 1479H565L471 451ZM291 127Q291 189 334 232T438 276Q498 276 543 232T588 127Q588 67 543 24T438 -20Q377 -20 334 23T291 127Z" />
<glyph unicode="&quot;" glyph-name="quotedbl" horiz-adv-x="717" d="M143 1456Q143 1491 165 1513T229 1536Q313 1536 313 1456L260 1028Q257 1004 229 1004Q199 1004 196 1028Q143 1452 143 1456ZM405 1456Q405 1491 427 1513T491 1536Q575 1536 575 1456L522
1028Q519 1004 491 1004Q461 1004 458 1028Q405 1452 405 1456Z" />
<glyph unicode="#" glyph-name="numbersign" horiz-adv-x="1350" d="M642 1597L761 1561L599 1073H925L1099 1597L1217 1561L1055 1073H1289V1006H1033L914 645H1168V578H892L644 -170L525 -133L761 578H435L187 -170L68 -133L304 578H81V645H326L446 1006H202V1073H468L642
1597ZM577 1006L457 645H783L903 1006H577Z" />
<glyph unicode="$" glyph-name="dollar" horiz-adv-x="1394" d="M106 1080Q106 1266 249 1384T639 1509V1659L735 1661V1505Q820 1499 900 1478T1056 1419T1177 1320T1223 1180Q1223 1092 1179 1036T1053 979Q986 979 936 1017T885 1120Q885 1200 926 1238T1022
1276Q915 1370 735 1380V848Q896 808 1001 761T1163 655T1242 533T1264 385Q1264 197 1132 92T735 -25V-190L639 -193V-27Q568 -23 494 -8T347 38T216 109T124 209T88 336Q88 419 142 472T268 526Q335 526 381 475T428 360Q428 294 390 259T287 215Q439 119 639
109V633Q633 633 621 637Q471 674 368 721T208 826T129 944T106 1080ZM735 109H741Q882 118 974 184T1067 362Q1067 459 989 510T735 608V109ZM639 870V1380Q503 1369 409 1301T315 1126Q315 1092 320 1067T345 1012T399 960T493 914T639 870Z" />
<glyph unicode="%" glyph-name="percent" horiz-adv-x="1779" d="M1379 1479L1479 1419L414 -61L314 -2L1379 1479ZM226 1157Q226 1045 288 959T455 872Q558 872 619 957T681 1155Q681 1265 622 1343T453 1421T285 1344T226 1157ZM70 1145Q70 1215 94 1279T165
1396T286 1479T453 1511T619 1480T740 1396T811 1278T836 1143T812 1009T742 893T622 809T455 778T287 809T165 892T95 1009T70 1145ZM1100 342Q1100 230 1163 144T1330 57Q1433 57 1494 142T1555 340Q1555 450 1496 528T1328 606T1160 529T1100 342ZM945 330Q945
400 969 464T1040 581T1161 664T1328 696T1494 665T1615 581T1686 463T1711 328T1687 194T1617 78T1497 -6T1330 -37T1162 -6T1040 77T970 194T945 330Z" />
<glyph unicode="&amp;" glyph-name="ampersand" horiz-adv-x="1810" d="M565 143Q629 143 701 190T874 334L635 690Q530 622 478 584T393 506T352 432T344 342Q344 261 403 202T565 143ZM840 1396Q751 1396 691 1343T631 1188Q631 1101 721 926Q741 941 778 968T838
1012T889 1056T935 1106T963 1160T975 1223Q975 1299 939 1347T840 1396ZM1343 -27Q1250 -27 1153 29T971 199Q956 186 915 149T854 95T793 50T720 8T640 -16T541 -27Q341 -27 228 86T115 379Q115 432 127 477T167 561T222 629T295 690T375 743T463 796T549 848Q497
933 465 1023T432 1167Q432 1330 544 1433T823 1536Q963 1536 1055 1453T1147 1237Q1147 1169 1120 1105T1039 984T930 880T797 782L1014 465L1339 862H1139V958H1714V862H1548L1106 334Q1157 244 1229 191T1356 137Q1393 137 1419 145T1469 176T1507 249T1520
375V518H1651V434Q1651 318 1638 238T1591 95T1496 3T1343 -27Z" />
<glyph unicode="&apos;" glyph-name="quotesingle" horiz-adv-x="455" d="M229 1004Q198 1004 171 1193T143 1456Q143 1491 165 1513T229 1536Q313 1536 313 1456Q313 1387 285 1196T229 1004Z" />
<glyph unicode="(" glyph-name="parenleft" horiz-adv-x="738" d="M296 668Q296 529 320 395T389 145T507 -48T671 -143V-229Q527 -215 410 -131T221 81T110 360T71 668Q71 824 109 975T220 1254T410 1466T671 1565V1479Q581 1462 508 1384T389 1190T320 941T296 668Z" />
<glyph unicode=")" glyph-name="parenright" horiz-adv-x="737" d="M443 668Q443 807 419 941T350 1191T232 1384T68 1479V1565Q212 1551 329 1467T518 1255T629 976T668 668Q668 512 630 361T519 82T329 -130T68 -229V-143Q158 -126 231 -48T350 146T419 395T443 668Z" />
<glyph unicode="*" glyph-name="asterisk" horiz-adv-x="1454" d="M1022 368L726 853L430 368L258 522L641 919L123 1081L205 1276L682 1003L616 1536H836L770 1003L1247 1276L1329 1081L811 919L1194 522L1022 368Z" />
<glyph unicode="+" glyph-name="plus" horiz-adv-x="1131" d="M650 532V156H480V532H148V680H480V1047H650V680H982V532H650Z" />
<glyph unicode="," glyph-name="comma" horiz-adv-x="617" d="M235 -174Q283 -145 323 -100T364 -16Q364 1 356 12Q317 -12 272 -12Q220 -12 180 29T139 121Q139 177 186 220T289 264Q360 264 418 210T477 55Q477 -22 433 -101T297 -244Q291 -246 285 -252L235 -174Z" />
<glyph unicode="-" glyph-name="hyphen" horiz-adv-x="889" d="M735 547H153V684H735V547Z" />
<glyph unicode="." glyph-name="period" horiz-adv-x="589" d="M146 127Q146 189 189 232T293 276Q353 276 398 232T443 127Q443 67 398 24T293 -20Q232 -20 189 23T146 127Z" />
<glyph unicode="/" glyph-name="slash" horiz-adv-x="819" d="M637 1597L756 1561L182 -170L63 -133L637 1597Z" />
<glyph unicode="0" glyph-name="zero" horiz-adv-x="1114" d="M442 1102T557 1102T766 1054T918 926T1008 746T1040 539Q1040 431 1009 331T920 151T768 22T557 -27T347 21T194 150T105 331T74 539Q74 646 105 745T195 925T348 1054ZM476 100T557 100T699 164T790
327T819 539Q819 652 789 752T698 917T557 983T416 918T325 752T295 539Q295 425 324 327T414 165Z" />
<glyph unicode="1" glyph-name="one" horiz-adv-x="821" d="M117 0V113H360V897L147 799L86 928L453 1073H575V113H805V0H117Z" />
<glyph unicode="2" glyph-name="two" horiz-adv-x="1058" d="M123 119Q151 139 223 187T358 277T497 380T628 496T719 616T756 741Q756 842 687 916T524 991Q391 991 309 897Q347 886 376 854T406 772Q406 707 363 667T252 627Q169 627 128 676T86 795Q86 919
226 1012T561 1106Q747 1106 855 1007T963 727Q963 651 899 557T694 360L424 164H958L995 -137L926 -147L831 0H143Q125 119 123 119Z" />
<glyph unicode="3" glyph-name="three" horiz-adv-x="1105" d="M446 -305Q349 -305 270 -284T141 -215T90 -102Q90 -38 125 1T231 41Q293 41 331 -1T369 -98Q369 -116 364 -134T352 -170T342 -195Q400 -203 424 -203Q516 -203 590 -175T710 -99T780 6T805 127Q805
385 549 385Q506 385 432 373L408 500Q735 549 735 754Q735 859 666 921T475 983Q393 983 342 961T233 874Q256 874 280 868T328 849T367 808T383 745Q383 680 343 639T238 598Q160 598 112 649T63 760Q63 922 188 1013T514 1104Q620 1104 702 1074T831 994T902
884T926 760Q926 654 863 580T670 473Q853 454 939 364T1026 133Q1026 -57 868 -181T446 -305Z" />
<glyph unicode="4" glyph-name="four" horiz-adv-x="1099" d="M643 150V924L268 150H643ZM1081 -250V-387H403V-250H643V0H109L84 135L606 1087L858 1057V150H1124L1106 0H858V-250H1081Z" />
<glyph unicode="5" glyph-name="five" horiz-adv-x="1085" d="M459 612Q607 612 715 579T887 485T980 346T1010 169Q1010 74 973 -10T867 -161T688 -265T442 -303Q345 -303 266 -282T137 -213T86 -100Q86 -36 121 3T227 43Q289 43 327 1T365 -96Q365 -121 352
-153T338 -186Q403 -195 420 -195Q511 -195 582 -167T698 -90T764 19T787 148Q787 239 751 307T652 416T513 475T346 494Q296 494 217 483L158 555L233 1073H913L854 903H356L309 604Q380 612 459 612Z" />
<glyph unicode="6" glyph-name="six" horiz-adv-x="1241" d="M653 98Q773 98 849 187T926 416Q926 548 857 630T657 713Q599 713 530 688T406 615T352 510Q352 395 383 304T483 156T653 98ZM1126 410Q1126 222 989 98T645 -27Q415 -27 278 134T141 606Q141 722
160 824T215 1004T298 1146T401 1253T519 1327T645 1370T772 1384Q886 1384 963 1338T1040 1217Q1040 1150 1004 1113T905 1075Q855 1075 815 1112T774 1196Q774 1214 776 1230T781 1261T784 1280Q602 1263 482 1102T352 700Q417 770 516 807T705 844Q820 844 914
797T1067 649T1126 410Z" />
<glyph unicode="7" glyph-name="seven" horiz-adv-x="1042" d="M975 922L475 -360Q456 -405 423 -428T352 -451Q306 -451 273 -419T240 -334Q240 -293 258 -254L813 932H283V688H98V1073H920L975 922Z" />
<glyph unicode="8" glyph-name="eight" horiz-adv-x="1234" d="M618 -27Q386 -27 240 71T94 332Q94 406 123 472T194 583T290 666T384 723T463 757Q396 797 348 834T255 921T187 1032T164 1163Q164 1322 287 1415T623 1509Q823 1509 950 1403T1077 1143Q1077 1077
1051 1019T980 918T889 845T789 790Q850 755 895 724T990 651T1070 565T1121 467T1141 350Q1141 178 1002 76T618 -27ZM622 1383Q504 1383 426 1321T348 1151Q348 1126 358 1101T381 1056T422 1013T471 973T533 933T597 896T670 856Q709 875 743 898T814 958T871
1045T893 1153Q893 1245 819 1314T622 1383ZM584 690Q539 666 499 638T413 568T340 473T313 362Q313 235 393 171T612 106Q756 106 844 165T932 350Q932 404 906 451T827 539T724 611T596 684Q588 688 584 690Z" />
<glyph unicode="9" glyph-name="nine" horiz-adv-x="1239" d="M475 -283Q361 -283 284 -236T207 -115Q207 -48 243 -11T342 27Q392 27 432 -10T473 -94Q473 -112 471 -128T466 -159T463 -178Q555 -172 636 -121T772 8T865 177T915 365Q863 307 775 278T598 248Q526
248 460 261T332 307T223 386T149 508T121 674Q121 794 184 893T358 1048T602 1104Q832 1104 969 943T1106 471Q1106 310 1068 180T968 -35T823 -177T653 -258T475 -283ZM625 379Q685 379 748 399T860 462T909 563Q909 617 901 669T872 779T818 880T729 951T602
979Q486 979 405 895T324 682Q324 532 401 456T625 379Z" />
<glyph unicode=":" glyph-name="colon" horiz-adv-x="588" d="M146 922Q146 984 189 1027T294 1071Q354 1071 398 1027T443 922Q443 862 399 818T294 774Q233 774 190 818T146 922ZM146 147Q146 209 189 253T294 297Q354 297 398 253T443 147Q443 87 399 44T294
0Q233 0 190 43T146 147Z" />
<glyph unicode=";" glyph-name="semicolon" horiz-adv-x="590" d="M139 131Q139 186 184 227T286 268Q355 268 403 216T452 70Q452 28 442 -6T403 -79T351 -144T274 -223L229 -150Q273 -123 310 -80T348 0Q348 17 339 29Q303 4 262 4Q215 4 177 43T139 131ZM139
922Q139 984 182 1027T286 1071Q346 1071 391 1027T436 922Q436 862 391 818T286 774Q225 774 182 818T139 922Z" />
<glyph unicode="&lt;" glyph-name="less" horiz-adv-x="943" d="M70 801L871 1155V989L226 711L871 449V279L70 604V801Z" />
<glyph unicode="=" glyph-name="equal" horiz-adv-x="1005" d="M153 860H851V723H153V860ZM153 496H851V358H153V496Z" />
<glyph unicode="&gt;" glyph-name="greater" horiz-adv-x="943" d="M874 801V604L73 279V449L718 711L73 989V1155L874 801Z" />
<glyph unicode="?" glyph-name="question" horiz-adv-x="1009" d="M492 406H426Q426 482 441 550T482 671T538 771T598 863T654 950T695 1046T711 1153Q711 1222 690 1277T634 1365T555 1415T465 1432Q397 1432 339 1398T252 1301Q270 1301 288 1298T328 1285T364
1262T390 1225T401 1172Q401 1107 361 1066T256 1024Q178 1024 130 1073T82 1182Q82 1292 145 1374T308 1496T528 1536Q573 1536 622 1525T727 1484T826 1410T897 1291T926 1123Q926 1025 889 940T796 791T680 670T567 544T492 406ZM455 -20Q394 -20 351 23T307
127Q307 189 350 232T455 276Q515 276 559 232T604 127Q604 67 560 24T455 -20Z" />
<glyph unicode="@" glyph-name="at" horiz-adv-x="1642" d="M1471 817Q1471 982 1398 1120T1193 1339T897 1421Q766 1421 650 1378T450 1262T305 1094T214 893T183 680Q183 561 222 456T339 267T545 134T836 85Q944 85 1073 120T1286 215Q1348 138 1348 133Q1248
61 1097 17T817 -28Q634 -28 485 29T238 186T89 419T37 706Q37 876 107 1030T294 1295T567 1470T889 1536Q1033 1536 1154 1494T1358 1380T1499 1215T1585 1020T1612 815Q1612 713 1585 622T1509 459T1381 347T1208 305Q1102 305 1047 369T985 567Q964 519 945
486T897 419T834 367T752 335T643 323Q595 323 551 340T467 391T405 487T381 628Q381 729 420 836T525 1031T682 1175T870 1232Q894 1232 944 1195T1033 1120L1071 1083Q1098 1158 1106 1183H1266Q1149 565 1149 518Q1149 397 1233 397Q1257 397 1287 412T1349
462T1409 543T1453 662T1471 817ZM557 651Q557 546 605 494T709 442Q795 442 880 531T985 702Q985 703 996 769T1019 905T1032 981Q1028 986 1021 995T992 1028T950 1069T904 1101T858 1116Q784 1116 713 1041T600 857T557 651Z" />
<glyph unicode="A" glyph-name="A" horiz-adv-x="1662" d="M635 143V0H8V143H188L715 1505H952L1487 143H1655V0H1008V143H1231L1092 504H514L383 143H635ZM1042 631L795 1309L561 631H1042Z" />
<glyph unicode="B" glyph-name="B" horiz-adv-x="1445" d="M514 862H731Q795 862 854 875T964 914T1046 989T1077 1100Q1077 1150 1066 1188T1035 1254T981 1301T911 1332T821 1350T717 1359T594 1362H514V862ZM514 143H633Q701 143 751 145T852 152T940 166T1010
190T1067 224T1106 273T1131 337T1139 420Q1139 497 1104 557T1011 654T881 710T731 729H514V143ZM33 0V143H279V1362H33V1505H688Q755 1505 818 1499T953 1479T1083 1438T1190 1371T1266 1270T1294 1133Q1294 1005 1224 927T1018 809Q1190 767 1282 668T1374 412Q1374
331 1350 267T1287 160T1190 86T1075 39T945 14T818 2T696 0H33Z" />
<glyph unicode="C" glyph-name="C" horiz-adv-x="1447" d="M817 1536Q954 1536 1080 1479T1288 1313T1370 1073Q1370 1005 1317 948T1174 891Q1098 891 1051 935T1004 1057T1063 1175T1182 1217Q1133 1292 1037 1344T815 1396Q611 1396 480 1224T348 764Q348 654
383 547T481 353T642 212T858 158Q946 158 1023 191T1154 277T1243 393T1296 522L1430 457Q1377 226 1215 100T795 -27Q640 -27 506 37T280 209T136 462T84 768Q84 933 137 1075T285 1318T517 1478T817 1536Z" />
<glyph unicode="D" glyph-name="D" horiz-adv-x="1568" d="M512 143Q638 143 740 160T936 221T1092 334T1192 512T1229 762Q1229 868 1209 954T1153 1102T1064 1210T951 1285T816 1330T669 1353T512 1360V143ZM33 1362V1505H485Q647 1505 785 1485T1056 1412T1280
1277T1429 1064T1485 762Q1485 602 1439 475T1310 259T1106 113T840 27T522 0H33V143H276V1362H33Z" />
<glyph unicode="E" glyph-name="E" horiz-adv-x="1484" d="M33 0V143H279V1362H33V1505H1393V926H1212V1362H514V821H887V1067H1020V446H887V707H514V143H1212V571H1393V0H33Z" />
<glyph unicode="F" glyph-name="F" horiz-adv-x="1409" d="M33 0V143H276V1362H33V1505H1374V956H1192V1362H512V844H872V1055H1010V471H872V725H512V143H772V0H33Z" />
<glyph unicode="G" glyph-name="G" horiz-adv-x="1599" d="M855 1536Q1021 1536 1154 1475T1361 1311T1434 1085Q1434 1023 1387 972T1262 920Q1190 920 1142 968T1094 1077Q1094 1147 1138 1192T1221 1237H1225Q1182 1296 1115 1334T990 1384T874 1396Q713 1396
592 1311T408 1083T346 762Q346 643 384 532T487 337T648 203T852 152Q929 152 1000 181T1120 254T1198 350T1227 446V586H944V737H1595V586H1432V0H1311L1262 211Q1228 144 1173 96T1051 22T920 -15T788 -27Q650 -27 533 18T335 141T196 319T111 532T84 760Q84
912 137 1051T287 1299T531 1471T855 1536Z" />
<glyph unicode="H" glyph-name="H" horiz-adv-x="1654" d="M1622 143V0H911V143H1143V725H512V143H741V0H33V143H276V1362H33V1505H741V1362H512V852H1143V1362H911V1505H1622V1362H1378V143H1622Z" />
<glyph unicode="I" glyph-name="I" horiz-adv-x="769" d="M509 143H739V0H30V143H274V1362H30V1505H739V1362H509V143Z" />
<glyph unicode="J" glyph-name="J" horiz-adv-x="1161" d="M451 -201Q267 -201 151 -106T35 123Q35 207 85 254T205 301Q271 301 321 258T371 141Q371 88 336 43T260 -27Q279 -54 335 -71T440 -88Q500 -88 543 -69T611 -18T651 67T671 176T676 311V1362H395V1505H1149V1362H911V338Q911
244 900 169T857 22T776 -96T643 -172T451 -201Z" />
<glyph unicode="K" glyph-name="K" horiz-adv-x="1624" d="M905 0V143H1128L684 696L512 553V143H723V0H33V143H276V1362H33V1505H723V1362H512V735Q521 738 560 771T612 817Q640 844 766 980T1006 1239L1118 1362H889V1505H1599V1362H1370L862 825L1436 143H1612V0H905Z" />
<glyph unicode="L" glyph-name="L" horiz-adv-x="1290" d="M1264 0H33V143H276V1362H33V1505H741V1362H512V143H1077V625H1264V0Z" />
<glyph unicode="M" glyph-name="M" horiz-adv-x="1937" d="M51 0V143H270V1362H33V1505H639L995 557L1327 1505H1890V1362H1657V143H1905V0H1212V143H1432V1329L1042 258Q1013 182 969 182Q946 182 925 202T891 252L453 1360V143H705V0H51Z" />
<glyph unicode="N" glyph-name="N" horiz-adv-x="1720" d="M694 143V0H33V143H274V1362H33V1505H573L1284 266V1362H1040V1505H1704V1362H1475V0H1208L465 1292V143H694Z" />
<glyph unicode="O" glyph-name="O" horiz-adv-x="1589" d="M84 637T84 754T111 982T197 1194T337 1371T538 1491T795 1536T1051 1492T1251 1371T1392 1195T1477 983T1505 754T1478 525T1392 313T1252 137T1052 18T795 -27T538 17T338 137T197 312T112 525ZM340
756Q340 658 358 565T415 390T507 246T634 149T795 113Q902 113 990 167T1133 312T1219 516T1249 752Q1249 848 1231 941T1174 1116T1083 1260T955 1359T795 1396Q688 1396 600 1342T456 1196T370 992T340 756Z" />
<glyph unicode="P" glyph-name="P" horiz-adv-x="1333" d="M580 1362H512V805H651Q1073 805 1073 1090Q1073 1134 1065 1170T1043 1232T1006 1279T959 1313T900 1336T834 1350T758 1357T677 1361T591 1362Q583 1362 580 1362ZM33 1505H647Q712 1505 761 1503T883
1493T1011 1469T1126 1423T1225 1350T1289 1244T1315 1098Q1315 1016 1292 951T1233 843T1137 767T1021 718T884 691T741 679T592 676H512V143H762V0H33V143H276V1362H33V1505Z" />
<glyph unicode="Q" glyph-name="Q" horiz-adv-x="1617" d="M795 113Q889 113 965 152Q901 259 843 317T713 375Q610 375 526 223Q636 113 795 113ZM766 502Q876 502 960 445T1120 289Q1183 374 1216 498T1249 752Q1249 848 1231 941T1174 1116T1083 1260T955 1359T795
1396Q688 1396 600 1342T456 1196T370 992T340 756Q340 635 369 518T451 315Q467 345 488 373T547 432T641 483T766 502ZM1671 229Q1671 92 1650 1T1586 -137T1490 -203T1358 -221Q1264 -221 1192 -159T1049 14Q934 -27 795 -27T538 17T338 137T197 312T112 525T84
754T111 982T197 1194T337 1371T538 1491T795 1536T1051 1492T1251 1371T1392 1195T1477 983T1505 754Q1505 568 1436 398T1237 121Q1287 47 1326 9T1405 -29H1413Q1473 -23 1511 49T1550 229V252H1671V229Z" />
<glyph unicode="R" glyph-name="R" horiz-adv-x="1583" d="M1282 -33Q1219 -33 1170 -11T1088 48T1028 147T986 276T952 440Q942 500 920 547T874 619T822 660T778 681T748 686H512V143H739V0H33V143H276V1362H33V1505H608Q692 1505 742 1504T878 1495T1016 1473T1133
1429T1235 1359T1297 1254T1323 1108Q1323 1020 1295 955T1214 847T1098 780T950 737Q1007 725 1046 704T1112 649T1154 577T1186 481Q1195 448 1205 400T1222 319T1240 251T1264 193T1297 158T1343 143Q1446 143 1446 332V471H1581V324Q1581 -33 1282 -33ZM512
836H637Q793 836 894 858T1054 938T1112 1090Q1112 1171 1083 1224T991 1307T843 1350T629 1362H512V836Z" />
<glyph unicode="S" glyph-name="S" horiz-adv-x="1337" d="M676 -27Q558 -27 451 -5T254 60T112 174T59 336Q59 419 113 472T240 526Q307 526 353 475T399 360Q399 294 361 259T258 215Q327 166 415 140T643 113Q748 113 831 138T968 221T1022 362Q1022 411 1006
448T960 513T878 565T765 608T614 649Q409 700 290 766T125 914T78 1112Q78 1296 238 1416T653 1536Q720 1536 792 1526T942 1490T1079 1429T1178 1334T1217 1206Q1217 1118 1173 1062T1047 1006Q980 1006 930 1044T879 1147Q879 1227 920 1265T1016 1303Q897 1396
678 1396Q583 1396 502 1368T369 1284T317 1153Q317 1118 323 1092T350 1035T409 981T511 932T668 887Q815 854 922 815T1098 732T1206 634T1262 524T1278 397Q1278 199 1122 86T676 -27Z" />
<glyph unicode="T" glyph-name="T" horiz-adv-x="1435" d="M1079 143V0H371V143H604V1362H221V897H35V1505H1401V897H1214V1362H840V143H1079Z" />
<glyph unicode="U" glyph-name="U" horiz-adv-x="1603" d="M799 -27Q650 -27 540 13T364 128T268 299T236 516V1362H20V1505H692V1362H471V502Q471 113 821 113Q992 113 1081 212T1171 508V1362H944V1505H1583V1362H1374V547Q1374 444 1358 362T1302 205T1198
81T1033 2T799 -27Z" />
<glyph unicode="V" glyph-name="V" horiz-adv-x="1640" d="M676 106L225 1362H-4V1505H713V1362H502L866 293L1219 1362H954V1505H1632V1362H1389L958 106Q931 29 903 -3T821 -35Q768 -35 736 -3T676 106Z" />
<glyph unicode="W" glyph-name="W" horiz-adv-x="2238" d="M1550 -35Q1499 -35 1478 -6T1432 106L1167 1012Q1168 1012 1105 786T978 332L915 106Q894 31 864 -2T778 -35Q726 -35 698 -4T645 106L258 1362H29V1505H725V1362H514L805 307L1094 1362H1294L1585 307L1858
1362H1655V1505H2210V1362H2028L1679 106Q1651 26 1627 -4T1550 -35Z" />
<glyph unicode="X" glyph-name="X" horiz-adv-x="1699" d="M1464 143H1683V0H969V143H1190L834 609L453 143H664V0H16V143H217L721 759L266 1362H23V1505H770V1362H541L863 935L1208 1362H961V1505H1669V1362H1440L975 785L1464 143Z" />
<glyph unicode="Y" glyph-name="Y" horiz-adv-x="1554" d="M659 595L227 1362H23V1505H692V1362H463L801 741L1149 1362H926V1505H1532V1362H1343L895 590V143H1124V0H416V143H659V595Z" />
<glyph unicode="Z" glyph-name="Z" horiz-adv-x="1359" d="M1278 0H135L111 166H113L983 1368H315V946H129V1505H1204L1245 1335L381 143H1092V590H1278V0Z" />
<glyph unicode="[" glyph-name="bracketleft" horiz-adv-x="1040" d="M896 -246H151V1602H896V1464H386V-109H896V-246Z" />
<glyph unicode="\" glyph-name="backslash" horiz-adv-x="819" d="M637 1597L756 1561L182 -170L63 -133L637 1597Z" />
<glyph unicode="]" glyph-name="bracketright" horiz-adv-x="1040" d="M145 1602H890V-246H145V-109H655V1464H145V1602Z" />
<glyph unicode="^" glyph-name="asciicircum" horiz-adv-x="1132" d="M482 1116H678L1004 315H834L572 975L293 315H127L482 1116Z" />
<glyph unicode="_" glyph-name="underscore" horiz-adv-x="739" d="M748 -127H-8V10H748V-127Z" />
<glyph unicode="`" glyph-name="grave" horiz-adv-x="1269" d="M395 1458L496 1597Q789 1389 971 1233L942 1194Q924 1201 893 1212T780 1257T629 1321T492 1390T395 1458Z" />
<glyph unicode="a" glyph-name="a" horiz-adv-x="1267" d="M291 229Q291 179 320 148T408 117Q474 117 544 156T661 256T707 371V584Q643 521 560 471T423 397T330 331T291 229ZM1276 313Q1276 213 1255 144T1194 39T1107 -12T997 -27Q930 -27 872 -1T773 83T723
223Q680 114 578 44T356 -27Q233 -27 156 38T78 219Q78 279 105 328T176 411T277 474T392 525T507 573T608 625T680 688T707 772Q707 886 651 941T494 997Q423 997 359 975T260 913Q324 913 361 879T399 797Q399 734 358 695T260 655Q201 655 157 696T113 817Q113
858 139 905T215 998T350 1072T537 1102Q619 1102 686 1084T807 1025T892 913T922 743V283Q922 244 931 209T969 144T1040 115Q1167 115 1167 293V442H1276V313Z" />
<glyph unicode="b" glyph-name="b" horiz-adv-x="1185" d="M616 989Q550 989 497 950T413 848T366 718T350 584Q350 448 381 338T474 161T616 94Q698 94 759 158T850 318T879 524Q879 611 865 690T821 838T738 948T616 989ZM657 -27Q547 -27 451 28T305 199L227
0H135V1382H-72V1505H350V942Q401 1017 479 1059T647 1102Q856 1102 982 944T1108 537Q1108 379 1052 251T892 48T657 -27Z" />
<glyph unicode="c" glyph-name="c" horiz-adv-x="1118" d="M74 516Q74 632 109 736T210 922T381 1053T616 1102Q689 1102 762 1081T898 1018T1000 908T1040 752Q1040 692 999 641T883 590Q818 590 774 628T729 731Q729 796 775 832T883 868Q850 921 790 955T651
989Q564 989 495 951T385 849T323 708T301 549Q301 356 390 246T637 135Q698 135 754 160T849 224T914 300T950 371L1063 334Q1025 170 902 72T592 -27Q485 -27 390 11T225 119T115 291T74 516Z" />
<glyph unicode="d" glyph-name="d" horiz-adv-x="1236" d="M831 170Q780 75 694 24T520 -27Q321 -27 201 128T80 537Q80 792 202 947T535 1102Q618 1102 698 1059T829 942V1382H594V1505H1044V112H1225V0H870L831 170ZM571 989Q503 989 451 949T368 842T324 696T309
532Q309 420 335 325T420 165T563 100Q685 100 764 227T844 549Q844 629 828 704T780 845T694 949T571 989Z" />
<glyph unicode="e" glyph-name="e" horiz-adv-x="1150" d="M310 659H854Q850 804 775 893T590 983Q480 983 401 894T310 659ZM74 523Q74 613 95 698T159 856T262 984T405 1070T584 1102Q686 1102 774 1066T928 962T1033 788T1074 551H303V543Q303 457 321 383T377
250T475 157T617 123Q721 123 812 188T936 371L1053 334Q1014 169 894 71T596 -27Q474 -27 373 19T208 144T109 319T74 523Z" />
<glyph unicode="f" glyph-name="f" horiz-adv-x="786" d="M711 112V0H51V112H246V961H51V1073H246Q246 1336 332 1459T623 1583Q785 1583 875 1518T965 1368Q965 1289 922 1243T815 1196Q761 1196 721 1234T680 1331Q680 1367 710 1404T791 1454Q769 1475 730
1487T653 1499Q560 1499 508 1437T455 1243V1073H782L774 961H461V112H711Z" />
<glyph unicode="g" glyph-name="g" horiz-adv-x="1198" d="M551 -535Q451 -535 369 -511T232 -431T176 -295Q176 -218 225 -179T344 -139Q400 -139 439 -178T479 -279Q479 -318 452 -357T395 -408Q459 -430 518 -430Q675 -430 752 -311T829 23V201Q797 105 711
39T516 -27Q431 -27 360 4T238 88T152 213T99 366T82 532Q82 640 110 740T191 922T330 1053T522 1102Q613 1102 705 1043T829 881L854 1073H1188V954H1044V51Q1044 -42 1028 -125T974 -285T880 -415T740 -502T551 -535ZM559 100Q648 100 712 162T806 315T836 512Q836
716 762 842T563 969Q481 969 420 908T330 754T301 551Q301 465 314 389T357 245T438 139T559 100Z" />
<glyph unicode="h" glyph-name="h" horiz-adv-x="1355" d="M1126 723V112H1341V0H717V112H911V731Q911 847 867 904T752 961Q701 961 647 933T547 857T473 741T444 598V112H639V0H45V112H229V1382H33V1505H444V883Q482 961 544 1012T669 1082T795 1102Q837 1102
874 1096T960 1067T1043 1006T1102 894T1126 723Z" />
<glyph unicode="i" glyph-name="i" horiz-adv-x="665" d="M188 1409Q188 1471 231 1515T336 1559Q396 1559 440 1515T485 1409Q485 1349 441 1306T336 1262Q275 1262 232 1305T188 1409ZM463 1073V112H659V0H55V112H248V961H53V1073H463Z" />
<glyph unicode="j" glyph-name="j" horiz-adv-x="665" d="M160 -471Q12 -471 -65 -414T-143 -254Q-143 -188 -100 -151T2 -113Q50 -113 84 -142T119 -223Q119 -325 61 -350Q94 -362 133 -362Q163 -362 188 -353T240 -319T282 -245T297 -121V961H53V1073H512V-90Q512
-274 415 -372T160 -471ZM227 1409Q227 1471 270 1515T375 1559Q435 1559 479 1515T524 1409Q524 1349 480 1306T375 1262Q314 1262 271 1305T227 1409Z" />
<glyph unicode="k" glyph-name="k" horiz-adv-x="1300" d="M1176 137Q1234 137 1280 158L1309 23Q1260 -5 1222 -12T1130 -20Q1023 -20 947 36T807 199L606 545L440 418V112H610V0H23V112H225V1382H23V1505H440V571L858 961H670V1073H1270V961H1079L733 629Q763
587 812 508T898 373T981 259T1077 169T1176 137Z" />
<glyph unicode="l" glyph-name="l" horiz-adv-x="708" d="M475 1505V112H690V0H37V112H260V1382H37V1505H475Z" />
<glyph unicode="m" glyph-name="m" horiz-adv-x="1929" d="M631 112V0H49V112H244V961H49V1073L428 1090L453 872Q473 933 511 979T597 1051T693 1089T791 1102Q826 1102 853 1099T918 1084T982 1050T1036 987T1079 889Q1128 1000 1213 1051T1399 1102Q1429 1102
1456 1099T1517 1086T1580 1059T1638 1012T1686 943T1718 844T1731 713V112H1915V0H1354V112H1516V711Q1516 841 1465 903T1325 965Q1220 965 1160 899T1100 731V112H1272V0H713V112H885V711Q885 841 834 903T694 965Q636 965 593 943T525 886T485 800T464 698T459
586V112H631Z" />
<glyph unicode="n" glyph-name="n" horiz-adv-x="1359" d="M641 0H49V112H244V961H49V1073L428 1090L453 872Q502 984 603 1043T809 1102Q839 1102 866 1099T927 1086T990 1059T1048 1012T1096 943T1128 844T1141 713V112H1346V0H743V112H926V711Q926 841 875
903T735 965Q677 965 630 944T552 886T499 800T469 697T459 586V112H641V0Z" />
<glyph unicode="o" glyph-name="o" horiz-adv-x="1189" d="M695 983T596 983T430 922T333 759T303 524Q303 332 382 216T598 100Q732 100 809 216T887 524Q887 659 858 759T762 921ZM598 -27Q358 -27 216 132T74 537Q74 697 135 824T316 1027T596 1102Q716 1102
815 1059T979 939T1080 760T1116 537Q1116 378 1056 251T876 49T598 -27Z" />
<glyph unicode="p" glyph-name="p" horiz-adv-x="1220" d="M918 551Q918 661 889 755T797 912T653 975Q533 975 458 851T383 532Q383 451 398 375T444 233T529 126T653 86Q722 86 775 127T858 237T903 385T918 551ZM391 901Q445 999 528 1050T717 1102Q842 1102
941 1027T1093 823T1147 539Q1147 289 1024 131T692 -27Q603 -27 526 15T397 133V-279H618V-401H-53V-281H182V961H-12V1073L391 1102V901Z" />
<glyph unicode="q" glyph-name="q" horiz-adv-x="1196" d="M565 86Q631 86 684 125T768 227T815 358T831 492Q831 628 800 739T707 916T565 983Q483 983 422 919T332 758T303 551Q303 464 317 385T361 237T443 127T565 86ZM524 1102Q634 1102 731 1047T877 877L954
1073H1047V-276H1253V-399H614V-275L831 -276V133Q780 58 702 16T535 -27Q326 -27 200 131T74 539Q74 697 130 825T290 1028T524 1102Z" />
<glyph unicode="r" glyph-name="r" horiz-adv-x="954" d="M684 0H49V112H244V961H49V1073L428 1090L455 856Q467 897 489 937T545 1016T631 1078T743 1102Q824 1102 882 1057T941 930Q941 852 896 809T788 766Q730 766 688 802T646 899Q646 920 656 942T676 976L687
987Q627 987 581 950T510 850T472 719T459 575V112H684V0Z" />
<glyph unicode="s" glyph-name="s" horiz-adv-x="1040" d="M514 -27Q436 -27 363 -12T224 33T119 118T79 243Q79 308 120 350T216 392Q272 392 311 361T351 271Q351 220 321 187T253 153Q291 125 356 107T488 88Q565 88 625 103T729 159T772 264Q772 312 743 349T665
409T556 452T430 490T305 533T195 592T118 676T88 797T117 919T192 1006T295 1062T406 1093T508 1102Q580 1102 653 1086T790 1041T894 963T934 857Q934 790 896 749T805 707Q748 707 708 741T668 836Q668 865 682 889T709 922T744 947Q645 995 520 995Q417 995
346 950T275 823Q275 784 304 754T382 705T492 666T619 628T745 581T855 516T933 424T963 295Q963 222 937 165T867 73T765 14T644 -18T514 -27Z" />
<glyph unicode="t" glyph-name="t" horiz-adv-x="892" d="M-20 1008Q57 1031 119 1090T219 1218T285 1352T335 1461T373 1505Q384 1505 391 1496T399 1470V1073H793V959H399V289Q399 201 439 157T545 113Q625 113 666 165T707 350V494H827V371Q827 173 757 73T508
-27Q446 -27 390 -8T287 49T212 150T184 295V961H-20V1008Z" />
<glyph unicode="u" glyph-name="u" horiz-adv-x="1286" d="M881 -29V197Q755 -27 520 -27Q485 -27 453 -22T380 -4T306 37T245 105T200 211T184 360V961H-4V1073H399V362Q399 229 441 171T573 112Q636 112 706 150T825 250T874 375V961H692V1073H1090V113L1284
92V0L881 -29Z" />
<glyph unicode="v" glyph-name="v" horiz-adv-x="1255" d="M635 -39Q583 -38 547 -3T483 109L170 961H-14V1073H590V961H408L672 158L928 961H758V1073H1270V961H1098L803 115Q774 33 737 -3T641 -39H635Z" />
<glyph unicode="w" glyph-name="w" horiz-adv-x="1687" d="M1188 -39Q1137 -39 1108 -7T1057 102L881 748L674 111Q647 27 617 -6T530 -39Q482 -39 453 -7T403 104L176 961H8V1073H569V961H408L575 219L809 958H991L1208 213L1395 961H1227V1073H1688V961H1546L1319
109Q1297 23 1270 -8T1188 -39Z" />
<glyph unicode="x" glyph-name="x" horiz-adv-x="1280" d="M571 1073V961H422L647 659L874 961H713V1073H1217V961H1053L737 572L1110 112H1276V0H682V112H860L622 440L362 112H543V0H27V112H184L522 526L168 961H4V1073H571Z" />
<glyph unicode="y" glyph-name="y" horiz-adv-x="1280" d="M360 -467Q222 -467 136 -405T49 -244Q49 -174 95 -129T221 -84Q283 -84 314 -126T346 -229Q346 -266 322 -294T262 -340Q304 -362 328 -362Q416 -362 476 -284T569 -23L172 961H-27V1073H590V961H408L698
176L946 961H780V1073H1294V961H1122L778 -4Q689 -261 592 -364T360 -467Z" />
<glyph unicode="z" glyph-name="z" horiz-adv-x="1093" d="M1010 0H127L109 158H111L748 961H283V686H119V1073H940L969 924L324 112H846V418H1010V0Z" />
<glyph unicode="{" glyph-name="braceleft" horiz-adv-x="862" d="M376 625Q410 617 433 605T472 569T498 520T513 448T520 356T522 236Q522 174 522 135T525 49T531 -27T542 -88T559 -140T585 -180T619 -211T665 -231T722 -244T794 -248V-334Q687 -334 609 -321T475
-275T385 -200T330 -89T303 54T296 236Q296 276 296 332T297 407Q297 506 278 531T180 557H65V692H180Q258 692 277 717T297 842Q297 860 297 917T296 1014Q296 1121 303 1196T330 1339T384 1449T474 1524T608 1569T794 1583V1497Q715 1497 665 1479T586 1433T543
1336T526 1204T522 1014Q522 941 521 895T514 803T499 731T473 681T433 646T376 625Z" />
<glyph unicode="|" glyph-name="bar" horiz-adv-x="487" d="M333 1606V-246H153V1606H333Z" />
<glyph unicode="}" glyph-name="braceright" horiz-adv-x="862" d="M534 625Q431 649 387 734T343 1014Q343 1140 340 1204T323 1336T280 1432T200 1479T71 1497V1583Q163 1583 233 1572T357 1541T446 1485T507 1407T544 1302T563 1172T568 1014Q568 951 568 916T571
841T576 782T588 742T605 712T631 696T665 686T712 684H800V565H712Q684 565 666 564T631 554T606 538T588 509T577 468T571 409T569 334T568 236Q568 129 561 54T535 -89T480 -200T390 -275T257 -320T71 -334V-248Q111 -248 142 -245T200 -232T245 -212T280 -180T305
-141T323 -89T334 -27T340 48T342 135T343 236Q343 430 387 515T534 625Z" />
<glyph unicode="~" glyph-name="asciitilde" horiz-adv-x="1060" d="M788 928Q854 928 872 960T891 1071H1016Q1016 976 1001 914T952 816T873 766T758 752Q691 752 588 786T395 853T272 887Q206 887 188 859T170 752H45Q45 847 60 909T108 1008T188 1058T303
1073Q368 1073 471 1037T664 964T788 928Z" />
<glyph unicode="&#xa1;" glyph-name="exclamdown" horiz-adv-x="856" d="M408 1028H480L574 0H314L408 1028ZM588 1352Q588 1290 545 1247T441 1203Q381 1203 336 1247T291 1352Q291 1412 336 1455T441 1499Q502 1499 545 1456T588 1352Z" />
<glyph unicode="&#xa2;" glyph-name="cent" horiz-adv-x="1146" d="M559 143V977Q474 953 414 885T328 731T301 549Q301 382 369 276T559 143ZM559 1290H647V1103Q718 1099 785 1075T911 1010T1004 901T1040 752Q1040 692 999 641T883 590Q818 590 774 628T729
731Q729 796 775 832T883 868Q850 921 790 955T651 989H647V135Q706 137 760 163T852 227T915 302T950 371L1063 334Q1028 182 920 85T647 -27V-213H559V-28Q350 -16 212 132T74 516Q74 664 127 789T292 1002T559 1102V1290Z" />
<glyph unicode="&#xa3;" glyph-name="sterling" horiz-adv-x="1234" d="M402 1182Q402 1117 426 1057T484 923T535 780H848L821 659L549 662Q549 514 489 365T344 117H924V496H1110V0H170L106 135Q195 238 254 372T313 659H141L164 780H299Q282 856 248 929T190
1060T166 1182Q166 1339 306 1437T674 1536Q854 1536 981 1452T1108 1229Q1108 1150 1062 1099T938 1047Q871 1047 821 1085T770 1188Q770 1242 812 1285T893 1336Q809 1424 682 1424Q557 1424 480 1358T402 1182Z" />
<glyph unicode="&#xa4;" glyph-name="currency" horiz-adv-x="1196" d="M991 578L897 672Q778 571 602 571Q431 571 303 670L210 578L151 637L243 729Q143 856 143 1024Q143 1197 245 1323L151 1417L210 1477L307 1380Q425 1477 600 1477T892 1378L991 1477L1050
1417L952 1319Q1052 1195 1052 1020Q1052 856 956 731L1050 637L991 578ZM740 1368T600 1368T372 1274T284 1020Q284 865 372 776T602 686Q741 686 828 776T915 1020Q915 1179 828 1273Z" />
<glyph unicode="&#xa5;" glyph-name="yen" horiz-adv-x="1601" d="M1143 735V604Q1143 603 950 603H903L895 590V528H1143V397H895V137H1124V0H416V137H659V397H397V528H659V595L654 603L397 604V735H580L227 1362H23V1505H692V1362H463L801 741L1149 1362H926V1505H1532V1362H1343L979
735H1143Z" />
<glyph unicode="&#xa6;" glyph-name="brokenbar" horiz-adv-x="487" d="M333 1606V911H153V1606H333ZM333 449V-246H153V449H333Z" />
<glyph unicode="&#xa7;" glyph-name="section" horiz-adv-x="1171" d="M588 -8Q511 -8 442 3T307 41T201 120T162 244Q162 309 200 351T291 393Q350 393 391 363T432 276Q432 224 405 195T326 160Q369 129 436 112T576 94Q682 94 751 133T821 254Q821 293 792
323T714 372T604 411T477 449T351 496T241 561T163 653T133 782Q133 932 242 1020Q166 1090 166 1198Q166 1254 186 1300T241 1376T318 1429T410 1464T502 1481T586 1487Q663 1487 732 1476T867 1438T973 1359T1012 1235Q1012 1170 974 1128T883 1085Q824 1085
783 1115T742 1202Q742 1254 769 1284T848 1319Q806 1349 739 1366T598 1384Q492 1384 422 1345T352 1225Q352 1181 390 1149T489 1094T623 1052T769 1003T904 939T1003 840T1041 696Q1041 547 932 459Q1008 389 1008 281Q1008 225 988 179T933 103T856 50T764
15T672 -2T588 -8ZM793 543Q850 586 850 666Q850 714 822 750T741 812T635 854T505 893T381 936Q324 891 324 813Q324 765 352 729T433 667T539 625T669 586T793 543Z" />
<glyph unicode="&#xa8;" glyph-name="dieresis" horiz-adv-x="1056" d="M172 1317Q172 1374 212 1415T309 1456Q365 1456 405 1415T446 1317Q446 1262 405 1221T309 1180Q252 1180 212 1220T172 1317ZM647 1317Q647 1374 687 1415T784 1456Q840 1456 882 1415T924
1317Q924 1262 882 1221T784 1180Q727 1180 687 1220T647 1317Z" />
<glyph unicode="&#xa9;" glyph-name="copyright" horiz-adv-x="1703" d="M1270 614Q1239 485 1136 409T901 333Q719 333 596 464T472 783Q472 979 594 1105T911 1232Q992 1232 1067 1199T1192 1101T1243 953Q1243 908 1208 870T1114 831Q1068 831 1035 861T1001
936Q1001 986 1042 1015T1122 1044Q1092 1089 1038 1119T909 1149Q789 1149 715 1052T640 787Q640 701 671 623T769 492T921 439Q1022 439 1095 504T1190 654L1270 614ZM871 72Q1011 72 1138 127T1358 274T1506 493T1561 760T1506 1026T1359 1245T1139 1391T871
1446Q685 1446 527 1354T275 1104T182 760Q182 621 237 494T384 274T604 127T871 72ZM1027 -27T869 -27T567 36T317 204T149 454T86 758Q86 915 148 1059T316 1307T566 1474T869 1536Q1080 1536 1260 1431T1546 1147T1652 758Q1652 600 1590 455T1422 204T1172
36Z" />
<glyph unicode="&#xaa;" glyph-name="ordfeminine" horiz-adv-x="1312" d="M323 756Q323 712 348 686T423 659Q510 659 595 732T681 877V1057Q626 1003 554 961T436 898T357 843T323 756ZM1171 827Q1171 742 1153 683T1101 593T1027 549T935 535H931Q841 535 773
591T695 750Q656 656 569 596T378 535Q272 535 205 592T138 748Q138 806 168 852T246 928T352 983T467 1032T573 1079T651 1139T681 1219Q681 1316 633 1363T497 1411Q436 1411 381 1392T296 1339Q352 1339 384 1310T417 1239Q417 1185 381 1152T296 1118Q246 1118
208 1154T169 1257Q169 1292 192 1332T257 1411T373 1474T534 1499Q605 1499 662 1483T766 1433T839 1338T865 1194V801Q865 768 873 738T906 682T968 657Q1076 657 1076 809V936H1171V827Z" />
<glyph unicode="&#xab;" glyph-name="guillemotleft" horiz-adv-x="966" d="M502 258V485L742 672L502 846V1061L889 731V596L502 258ZM84 258V485L324 672L84 846V1061L471 731V596L84 258Z" />
<glyph unicode="&#xac;" glyph-name="logicalnot" horiz-adv-x="1136" d="M814 289V649H150V797H984V289H814Z" />
<glyph unicode="&#xad;" glyph-name="uni00AD" horiz-adv-x="970" d="M816 797V649H153V797H816Z" />
<glyph unicode="&#xae;" glyph-name="registered" horiz-adv-x="1703" d="M731 829H783Q912 829 972 863T1032 977Q1032 1064 975 1096T779 1128H731V829ZM1144 335Q1091 335 1055 349T994 395T955 471T929 580Q920 633 900 677T863 740T835 760H731V430H835V351H447V430H574V1128H447V1210H779Q823
1210 855 1209T933 1202T1012 1188T1080 1162T1138 1120T1175 1060T1190 977Q1190 930 1173 895T1122 837T1051 801T963 777Q1013 766 1046 736T1091 668T1111 588T1121 512T1136 455T1170 432Q1202 432 1218 458T1234 548V620H1339V534Q1339 486 1326 449T1294
391T1247 357T1196 339T1144 335ZM871 72Q1011 72 1139 127T1359 274T1506 493T1561 760Q1561 899 1506 1026T1359 1246T1139 1392T871 1446Q732 1446 605 1392T384 1246T237 1027T182 760Q182 621 236 494T384 274T604 127T871 72ZM869 -27Q711 -27 566 36T316
204T149 454T86 758Q86 915 148 1059T316 1307T566 1474T869 1536Q1028 1536 1173 1474T1423 1308T1590 1059T1652 758Q1652 600 1590 455T1423 204T1173 36T869 -27Z" />
<glyph unicode="&#xaf;" glyph-name="overscore" horiz-adv-x="889" d="M735 1341H153V1479H735V1341Z" />
<glyph unicode="0;" glyph-name="degree" horiz-adv-x="921" d="M531 1421T461 1421T337 1367T283 1217Q283 1120 335 1069T459 1018Q530 1018 584 1071T639 1217Q639 1312 585 1366ZM145 1217Q145 1344 229 1426T461 1509Q606 1509 691 1427T776 1217T691
1006T461 922T231 1005T145 1217Z" />
<glyph unicode="1;" glyph-name="plusminus" horiz-adv-x="956" d="M102 147H854V0H102V147ZM563 621V326H393V621H102V768H393V1053H563V768H854V621H563Z" />
<glyph unicode="2;" glyph-name="uni00B2" horiz-adv-x="924" d="M155 795Q176 811 246 857T372 944T490 1039T588 1151T624 1262Q624 1337 573 1393T452 1450Q354 1450 292 1379Q320 1370 342 1347T364 1287Q364 1236 332 1206T249 1176Q189 1176 159 1212T126
1297V1301Q126 1394 230 1465T478 1536Q616 1536 696 1461T777 1250Q777 1193 730 1122T579 975L378 828H773L800 603L749 594L679 705H169Q157 795 155 795Z" />
<glyph unicode="3;" glyph-name="uni00B3" horiz-adv-x="814" d="M343 682Q253 682 191 716T128 809Q128 848 149 872T214 897Q252 897 276 874T300 819Q300 784 284 762Q318 756 345 756Q439 756 497 811T556 944Q556 969 553 989T539 1031T511 1066T465
1090T397 1100Q370 1100 335 1094L321 1170Q419 1185 469 1227T519 1333Q519 1394 476 1431T370 1469Q291 1469 225 1409Q258 1403 282 1383T306 1323Q306 1285 278 1259T210 1233Q162 1233 137 1264T112 1337Q112 1412 192 1474T384 1536Q508 1536 573 1479T638
1342Q638 1277 589 1227T452 1159Q575 1159 639 1099T704 948Q704 834 604 758T343 682Z" />
<glyph unicode="4;" glyph-name="acute" horiz-adv-x="1269" d="M971 1458Q927 1413 790 1347T538 1238L424 1194L395 1233Q476 1302 594 1393T792 1540L870 1597L971 1458Z" />
<glyph unicode="6;" glyph-name="paragraph" horiz-adv-x="1210" d="M797 735V-57H627V735H565Q463 735 382 766T250 851T174 969T147 1106T173 1243T249 1362T378 1447T555 1479H1106V-57H942V735H797Z" />
<glyph unicode="7;" glyph-name="middot" horiz-adv-x="669" d="M186 924Q186 986 229 1029T334 1073Q394 1073 438 1029T483 924Q483 864 439 820T334 776Q273 776 230 820T186 924Z" />
<glyph unicode="8;" glyph-name="cedilla" horiz-adv-x="337" d="M307 -276Q307 -312 279 -342T212 -391T133 -421T65 -439L37 -444L8 -373Q66 -363 110 -345T154 -307Q154 -286 107 -240T59 -168Q59 -110 120 -55T268 0H307V-276Z" />
<glyph unicode="9;" glyph-name="uni00B9" horiz-adv-x="680" d="M143 725V811H276V1386L143 1351V1458L422 1536V811H547V725H143Z" />
<glyph unicode="a;" glyph-name="ordmasculine" horiz-adv-x="1177" d="M589 1434Q505 1434 448 1382T365 1243T339 1043Q339 878 406 779T591 680Q706 680 771 780T837 1043Q837 1158 813 1243T731 1381T589 1434ZM591 572Q385 572 264 708T143 1053Q143
1190 195 1298T349 1471T589 1536Q794 1536 913 1400T1033 1053Q1033 917 982 809T829 637T591 572Z" />
<glyph unicode="b;" glyph-name="guillemotright" horiz-adv-x="966" d="M502 258V485L742 672L502 846V1061L889 731V596L502 258ZM84 258V485L324 672L84 846V1061L471 731V596L84 258Z" />
<glyph unicode="c;" glyph-name="onequarter" horiz-adv-x="1526" d="M1218 1479L1318 1419L253 -61L153 -2L1218 1479ZM69 750V836H202V1411L69 1376V1483L348 1561V836H473V750H69ZM1458 86V0H1056V86H1202V268H853V360L1169 805H1327V352H1458V268H1327V86H1458ZM1202
352V696L966 352H1202Z" />
<glyph unicode="d;" glyph-name="onehalf" horiz-adv-x="1668" d="M1219 1479L1319 1419L254 -61L154 -2L1219 1479ZM70 750V836H203V1411L70 1376V1483L349 1561V836H474V750H70ZM957 90Q978 106 1048 152T1174 239T1292 334T1390 446T1426 557Q1426 632
1375 688T1254 745Q1156 745 1094 674Q1122 665 1144 642T1166 582Q1166 531 1134 501T1051 471Q991 471 961 507T928 592V596Q928 689 1032 760T1280 831Q1418 831 1498 756T1579 545Q1579 488 1532 417T1381 270L1180 123H1575L1602 -102L1551 -111L1481 0H971Q959
90 957 90Z" />
<glyph unicode="e;" glyph-name="threequarters" horiz-adv-x="1576" d="M1015 352H1251V696L1015 352ZM1507 0H1105V86H1251V268H902V360L1218 805H1376V352H1507V268H1376V86H1507V0ZM298 729Q208 729 146 763T83 856Q83 895 104 919T169 944Q207 944 231
921T255 866Q255 831 239 809Q274 803 300 803Q396 803 453 859T511 995Q511 1147 352 1147Q324 1147 290 1141L276 1217Q374 1232 424 1274T474 1380Q474 1441 431 1478T325 1516Q246 1516 180 1456Q213 1450 237 1430T261 1370Q261 1332 233 1306T165 1280Q117
1280 92 1311T67 1384Q67 1459 147 1521T339 1583Q463 1583 528 1526T593 1389Q593 1324 544 1274T407 1206Q530 1206 594 1146T659 995Q659 881 559 805T298 729ZM202 -2L1267 1479L1367 1419L302 -61L202 -2Z" />
<glyph unicode="f;" glyph-name="questiondown" horiz-adv-x="1009" d="M516 1103H582Q582 999 553 909T482 755T398 631T327 501T297 356Q297 287 318 232T374 144T453 94T543 77Q611 77 669 111T756 208Q738 208 720 211T680 224T644 247T618 284T607 337Q607
402 647 443T752 485Q830 485 878 436T926 327Q926 217 863 135T700 13T480 -27Q435 -27 386 -16T281 25T182 99T111 218T82 386Q82 484 119 569T212 718T328 839T441 965T516 1103ZM553 1529Q614 1529 657 1486T701 1382Q701 1320 658 1277T553 1233Q493 1233
449 1277T404 1382Q404 1442 448 1485T553 1529Z" />
<glyph unicode="0;" glyph-name="Agrave" horiz-adv-x="1662" d="M635 143V0H8V143H188L715 1505H952L1487 143H1655V0H1008V143H1231L1092 504H514L383 143H635ZM1042 631L795 1309L561 631H1042ZM545 1902L646 2041Q939 1833 1121 1677L1092 1638Q1074 1645
1043 1656T930 1701T779 1765T642 1834T545 1902Z" />
<glyph unicode="1;" glyph-name="Aacute" horiz-adv-x="1662" d="M635 143V0H8V143H188L715 1505H952L1487 143H1655V0H1008V143H1231L1092 504H514L383 143H635ZM1042 631L795 1309L561 631H1042ZM1121 1902Q1077 1857 940 1791T688 1682L574 1638L545 1677Q626
1746 744 1837T942 1984L1020 2041L1121 1902Z" />
<glyph unicode="2;" glyph-name="Acircumflex" horiz-adv-x="1662" d="M830 1911Q795 1880 739 1813T642 1694L603 1642L504 1734L830 2085L1158 1728L1059 1638Q908 1841 830 1911ZM635 143V0H8V143H188L715 1505H952L1487 143H1655V0H1008V143H1231L1092
504H514L383 143H635ZM1042 631L795 1309L561 631H1042Z" />
<glyph unicode="3;" glyph-name="Atilde" horiz-adv-x="1662" d="M999 1732Q958 1732 836 1685T657 1638Q565 1638 527 1693T489 1881H577Q577 1830 596 1810T665 1789Q706 1789 828 1836T1007 1883Q1099 1883 1137 1828T1175 1640H1087Q1087 1691 1068 1711T999
1732ZM635 143V0H8V143H188L715 1505H952L1487 143H1655V0H1008V143H1231L1092 504H514L383 143H635ZM1042 631L795 1309L561 631H1042Z" />
<glyph unicode="4;" glyph-name="Adieresis" horiz-adv-x="1662" d="M456 1775Q456 1832 496 1873T593 1914Q649 1914 689 1873T730 1775Q730 1720 689 1679T593 1638Q536 1638 496 1678T456 1775ZM931 1775Q931 1832 971 1873T1068 1914Q1124 1914 1166 1873T1208
1775Q1208 1720 1166 1679T1068 1638Q1011 1638 971 1678T931 1775ZM635 143V0H8V143H188L715 1505H952L1487 143H1655V0H1008V143H1231L1092 504H514L383 143H635ZM1042 631L795 1309L561 631H1042Z" />
<glyph unicode="5;" glyph-name="Aring" horiz-adv-x="1662" d="M878 1834T833 1834T754 1800T720 1707T753 1615T831 1582T910 1615T944 1707Q944 1766 911 1800ZM632 1707Q632 1786 686 1837T833 1889Q924 1889 978 1838T1032 1707T978 1576T833 1524Q741
1524 687 1575T632 1707ZM635 143V0H8V143H188L715 1505H952L1487 143H1655V0H1008V143H1231L1092 504H514L383 143H635ZM1042 631L795 1309L561 631H1042Z" />
<glyph unicode="6;" glyph-name="AE" horiz-adv-x="2164" d="M618 137V0H0V137H180L874 1335H608V1479H2073V899H1892V1335H1276V813H1567V1038H1700V424H1567V698H1276V137H1892V571H2073V0H874V137H1059V504H598L401 137H618ZM668 631H1059V1335L668 631Z" />
<glyph unicode="7;" glyph-name="Ccedilla" horiz-adv-x="1447" d="M832 -288Q832 -324 804 -354T737 -403T658 -433T590 -451L562 -456L533 -385Q591 -375 635 -357T679 -319Q679 -298 632 -252T584 -180Q584 -122 645 -67T793 -12H832V-288ZM817 1536Q954
1536 1080 1479T1288 1313T1370 1073Q1370 1005 1317 948T1174 891Q1098 891 1051 935T1004 1057T1063 1175T1182 1217Q1133 1292 1037 1344T815 1396Q611 1396 480 1224T348 764Q348 654 383 547T481 353T642 212T858 158Q946 158 1023 191T1154 277T1243 393T1296
522L1430 457Q1377 226 1215 100T795 -27Q640 -27 506 37T280 209T136 462T84 768Q84 933 137 1075T285 1318T517 1478T817 1536Z" />
<glyph unicode="8;" glyph-name="Egrave" horiz-adv-x="1484" d="M33 0V143H279V1362H33V1505H1393V926H1212V1362H514V821H887V1067H1020V446H887V707H514V143H1212V571H1393V0H33ZM425 1902L526 2041Q819 1833 1001 1677L972 1638Q954 1645 923 1656T810
1701T659 1765T522 1834T425 1902Z" />
<glyph unicode="9;" glyph-name="Eacute" horiz-adv-x="1484" d="M33 0V143H279V1362H33V1505H1393V926H1212V1362H514V821H887V1067H1020V446H887V707H514V143H1212V571H1393V0H33ZM1001 1902Q957 1857 820 1791T568 1682L454 1638L425 1677Q506 1746 624
1837T822 1984L900 2041L1001 1902Z" />
<glyph unicode="a;" glyph-name="Ecircumflex" horiz-adv-x="1484" d="M712 1911Q677 1880 621 1813T524 1694L485 1642L386 1734L712 2085L1040 1728L941 1638Q790 1841 712 1911ZM33 0V143H279V1362H33V1505H1393V926H1212V1362H514V821H887V1067H1020V446H887V707H514V143H1212V571H1393V0H33Z"
/>
<glyph unicode="b;" glyph-name="Edieresis" horiz-adv-x="1484" d="M403 1775Q403 1832 443 1873T540 1914Q596 1914 636 1873T677 1775Q677 1720 637 1679T540 1638Q483 1638 443 1678T403 1775ZM878 1775Q878 1832 918 1873T1015 1914Q1071 1914 1113 1873T1155
1775Q1155 1720 1113 1679T1015 1638Q958 1638 918 1678T878 1775ZM33 0V143H279V1362H33V1505H1393V926H1212V1362H514V821H887V1067H1020V446H887V707H514V143H1212V571H1393V0H33Z" />
<glyph unicode="c;" glyph-name="Igrave" horiz-adv-x="769" d="M509 143H739V0H30V143H274V1362H30V1505H739V1362H509V143ZM96 1902L197 2041Q490 1833 672 1677L643 1638Q625 1645 594 1656T481 1701T330 1765T193 1834T96 1902Z" />
<glyph unicode="d;" glyph-name="Iacute" horiz-adv-x="769" d="M509 143H739V0H30V143H274V1362H30V1505H739V1362H509V143ZM672 1902Q628 1857 491 1791T240 1682L125 1638L96 1677Q177 1746 295 1837T492 1984L571 2041L672 1902Z" />
<glyph unicode="e;" glyph-name="Icircumflex" horiz-adv-x="769" d="M383 1911Q348 1880 292 1813T196 1694L156 1642L57 1734L383 2085L711 1728L612 1638Q461 1841 383 1911ZM509 143H739V0H30V143H274V1362H30V1505H739V1362H509V143Z" />
<glyph unicode="f;" glyph-name="Idieresis" horiz-adv-x="769" d="M9 1775Q9 1832 49 1873T146 1914Q202 1914 242 1873T283 1775Q283 1720 243 1679T146 1638Q89 1638 49 1678T9 1775ZM484 1775Q484 1832 524 1873T621 1914Q677 1914 719 1873T761 1775Q761
1720 719 1679T621 1638Q564 1638 524 1678T484 1775ZM509 143H739V0H30V143H274V1362H30V1505H739V1362H509V143Z" />
<glyph unicode="&#xd0;" glyph-name="Eth" horiz-adv-x="1613" d="M33 1362V1505H485Q647 1505 785 1485T1056 1412T1280 1277T1429 1064T1485 762Q1485 602 1439 475T1310 259T1106 113T840 27T522 0H33V137H276V690H55V834H276V1362H33ZM512 137Q638 137 740
154T936 216T1092 330T1192 509T1229 762Q1229 868 1209 954T1153 1102T1064 1210T951 1285T816 1330T669 1353T512 1360V834H764V690H512V137Z" />
<glyph unicode="&#xd1;" glyph-name="Ntilde" horiz-adv-x="1720" d="M1035 1732Q994 1732 872 1685T693 1638Q601 1638 563 1693T525 1881H613Q613 1830 632 1810T701 1789Q742 1789 864 1836T1043 1883Q1135 1883 1173 1828T1211 1640H1123Q1123 1691 1104 1711T1035
1732ZM694 143V0H33V143H274V1362H33V1505H573L1284 266V1362H1040V1505H1704V1362H1475V0H1208L465 1292V143H694Z" />
<glyph unicode="&#xd2;" glyph-name="Ograve" horiz-adv-x="1589" d="M84 637T84 754T111 982T197 1194T337 1371T538 1491T795 1536T1051 1492T1251 1371T1392 1195T1477 983T1505 754T1478 525T1392 313T1252 137T1052 18T795 -27T538 17T338 137T197 312T112
525ZM340 756Q340 658 358 565T415 390T507 246T634 149T795 113Q902 113 990 167T1133 312T1219 516T1249 752Q1249 848 1231 941T1174 1116T1083 1260T955 1359T795 1396Q688 1396 600 1342T456 1196T370 992T340 756ZM507 1902L608 2041Q901 1833 1083 1677L1054
1638Q1036 1645 1005 1656T892 1701T741 1765T604 1834T507 1902Z" />
<glyph unicode="&#xd3;" glyph-name="Oacute" horiz-adv-x="1589" d="M84 637T84 754T111 982T197 1194T337 1371T538 1491T795 1536T1051 1492T1251 1371T1392 1195T1477 983T1505 754T1478 525T1392 313T1252 137T1052 18T795 -27T538 17T338 137T197 312T112
525ZM340 756Q340 658 358 565T415 390T507 246T634 149T795 113Q902 113 990 167T1133 312T1219 516T1249 752Q1249 848 1231 941T1174 1116T1083 1260T955 1359T795 1396Q688 1396 600 1342T456 1196T370 992T340 756ZM1083 1902Q1039 1857 902 1791T650 1682L536
1638L507 1677Q588 1746 706 1837T904 1984L982 2041L1083 1902Z" />
<glyph unicode="&#xd4;" glyph-name="Ocircumflex" horiz-adv-x="1589" d="M794 1911Q759 1880 703 1813T606 1694L567 1642L468 1734L794 2085L1122 1728L1023 1638Q872 1841 794 1911ZM84 637T84 754T111 982T197 1194T337 1371T538 1491T795 1536T1051 1492T1251
1371T1392 1195T1477 983T1505 754T1478 525T1392 313T1252 137T1052 18T795 -27T538 17T338 137T197 312T112 525ZM340 756Q340 658 358 565T415 390T507 246T634 149T795 113Q902 113 990 167T1133 312T1219 516T1249 752Q1249 848 1231 941T1174 1116T1083 1260T955
1359T795 1396Q688 1396 600 1342T456 1196T370 992T340 756Z" />
<glyph unicode="&#xd5;" glyph-name="Otilde" horiz-adv-x="1589" d="M961 1732Q920 1732 798 1685T619 1638Q527 1638 489 1693T451 1881H539Q539 1830 558 1810T627 1789Q668 1789 790 1836T969 1883Q1061 1883 1099 1828T1137 1640H1049Q1049 1691 1030 1711T961
1732ZM84 637T84 754T111 982T197 1194T337 1371T538 1491T795 1536T1051 1492T1251 1371T1392 1195T1477 983T1505 754T1478 525T1392 313T1252 137T1052 18T795 -27T538 17T338 137T197 312T112 525ZM340 756Q340 658 358 565T415 390T507 246T634 149T795 113Q902
113 990 167T1133 312T1219 516T1249 752Q1249 848 1231 941T1174 1116T1083 1260T955 1359T795 1396Q688 1396 600 1342T456 1196T370 992T340 756Z" />
<glyph unicode="&#xd6;" glyph-name="Odieresis" horiz-adv-x="1589" d="M418 1775Q418 1832 458 1873T555 1914Q611 1914 651 1873T692 1775Q692 1720 651 1679T555 1638Q498 1638 458 1678T418 1775ZM893 1775Q893 1832 933 1873T1030 1914Q1086 1914 1128 1873T1170
1775Q1170 1720 1128 1679T1030 1638Q973 1638 933 1678T893 1775ZM84 637T84 754T111 982T197 1194T337 1371T538 1491T795 1536T1051 1492T1251 1371T1392 1195T1477 983T1505 754T1478 525T1392 313T1252 137T1052 18T795 -27T538 17T338 137T197 312T112 525ZM340
756Q340 658 358 565T415 390T507 246T634 149T795 113Q902 113 990 167T1133 312T1219 516T1249 752Q1249 848 1231 941T1174 1116T1083 1260T955 1359T795 1396Q688 1396 600 1342T456 1196T370 992T340 756Z" />
<glyph unicode="&#xd7;" glyph-name="multiply" horiz-adv-x="956" d="M476 666L739 930L842 829L577 565L842 301L739 197L475 462L211 199L109 299L373 564L109 829L209 932L476 666Z" />
<glyph unicode="&#xd8;" glyph-name="Oslash" horiz-adv-x="1589" d="M1137 1188Q1008 1399 795 1399Q688 1399 600 1344T456 1198T370 993T340 756Q340 527 432 355L1137 1188ZM1179 1107L479 280Q603 113 795 113Q902 113 990 167T1133 312T1219 516T1249 752Q1249
944 1179 1107ZM1432 1536L1497 1483L1331 1286Q1417 1178 1461 1040T1505 754Q1505 637 1478 525T1392 313T1252 137T1052 18T795 -27Q532 -27 350 127L166 -90L100 -37L289 186Q189 296 137 445T84 754Q84 871 111 982T197 1194T337 1371T538 1491T795 1536Q1084
1536 1274 1349L1432 1536Z" />
<glyph unicode="&#xd9;" glyph-name="Ugrave" horiz-adv-x="1603" d="M799 -27Q650 -27 540 13T364 128T268 299T236 516V1362H20V1505H692V1362H471V502Q471 113 821 113Q992 113 1081 212T1171 508V1362H944V1505H1583V1362H1374V547Q1374 444 1358 362T1302
205T1198 81T1033 2T799 -27ZM513 1902L614 2041Q907 1833 1089 1677L1060 1638Q1042 1645 1011 1656T898 1701T747 1765T610 1834T513 1902Z" />
<glyph unicode="&#xda;" glyph-name="Uacute" horiz-adv-x="1603" d="M799 -27Q650 -27 540 13T364 128T268 299T236 516V1362H20V1505H692V1362H471V502Q471 113 821 113Q992 113 1081 212T1171 508V1362H944V1505H1583V1362H1374V547Q1374 444 1358 362T1302
205T1198 81T1033 2T799 -27ZM1089 1902Q1045 1857 908 1791T656 1682L542 1638L513 1677Q594 1746 712 1837T910 1984L988 2041L1089 1902Z" />
<glyph unicode="&#xdb;" glyph-name="Ucircumflex" horiz-adv-x="1603" d="M800 1911Q765 1880 709 1813T612 1694L573 1642L474 1734L800 2085L1128 1728L1029 1638Q878 1841 800 1911ZM799 -27Q650 -27 540 13T364 128T268 299T236 516V1362H20V1505H692V1362H471V502Q471
113 821 113Q992 113 1081 212T1171 508V1362H944V1505H1583V1362H1374V547Q1374 444 1358 362T1302 205T1198 81T1033 2T799 -27Z" />
<glyph unicode="&#xdc;" glyph-name="Udieresis" horiz-adv-x="1603" d="M426 1775Q426 1832 466 1873T563 1914Q619 1914 659 1873T700 1775Q700 1720 659 1679T563 1638Q506 1638 466 1678T426 1775ZM901 1775Q901 1832 941 1873T1038 1914Q1094 1914 1136 1873T1178
1775Q1178 1720 1136 1679T1038 1638Q981 1638 941 1678T901 1775ZM799 -27Q650 -27 540 13T364 128T268 299T236 516V1362H20V1505H692V1362H471V502Q471 113 821 113Q992 113 1081 212T1171 508V1362H944V1505H1583V1362H1374V547Q1374 444 1358 362T1302 205T1198
81T1033 2T799 -27Z" />
<glyph unicode="&#xdd;" glyph-name="Yacute" horiz-adv-x="1554" d="M659 595L227 1362H23V1505H692V1362H463L801 741L1149 1362H926V1505H1532V1362H1343L895 590V143H1124V0H416V143H659V595ZM1065 1902Q1021 1857 884 1791T632 1682L518 1638L489 1677Q570
1746 688 1837T886 1984L964 2041L1065 1902Z" />
<glyph unicode="&#xde;" glyph-name="Thorn" horiz-adv-x="1382" d="M1110 766Q1110 820 1098 861T1065 930T1010 976T941 1004T856 1019T762 1025T658 1026Q630 1026 616 1026H549V506H688Q760 506 814 510T927 531T1023 574T1085 650T1110 766ZM799 0H70V137H313V1335H70V1479H778V1335H549V1169H684Q737
1169 771 1169T864 1164T964 1154T1060 1133T1153 1100T1231 1050T1296 982T1336 890T1352 774Q1352 692 1328 629T1270 524T1173 453T1059 410T921 387T779 378T629 377H549V137H799V0Z" />
<glyph unicode="&#xdf;" glyph-name="germandbls" horiz-adv-x="1314" d="M430 981V0H68V119H215V981Q215 1231 333 1360T672 1489Q856 1489 965 1400T1075 1130Q1075 1064 1049 1006T985 911T910 846T846 799T819 770Q819 757 850 740T928 705T1030 654T1131
584T1209 485T1241 350Q1241 283 1216 229T1151 138T1051 76T934 35T804 13T678 2T561 0V119Q803 119 914 175T1026 348Q1026 402 1004 445T947 518T869 572T784 617T706 658T649 706T627 766Q627 804 646 840T695 901T759 956T822 1012T871 1074T891 1149Q891
1246 834 1300T680 1354Q554 1354 492 1257T430 981Z" />
<glyph unicode="&#xe0;" glyph-name="agrave" horiz-adv-x="1267" d="M291 229Q291 179 320 148T408 117Q474 117 544 156T661 256T707 371V584Q643 521 560 471T423 397T330 331T291 229ZM1276 313Q1276 213 1255 144T1194 39T1107 -12T997 -27Q930 -27 872 -1T773
83T723 223Q680 114 578 44T356 -27Q233 -27 156 38T78 219Q78 279 105 328T176 411T277 474T392 525T507 573T608 625T680 688T707 772Q707 886 651 941T494 997Q423 997 359 975T260 913Q324 913 361 879T399 797Q399 734 358 695T260 655Q201 655 157 696T113
817Q113 858 139 905T215 998T350 1072T537 1102Q619 1102 686 1084T807 1025T892 913T922 743V283Q922 244 931 209T969 144T1040 115Q1167 115 1167 293V442H1276V313ZM249 1468L350 1607Q643 1399 825 1243L796 1204Q778 1211 747 1222T634 1267T483 1331T346
1400T249 1468Z" />
<glyph unicode="&#xe1;" glyph-name="aacute" horiz-adv-x="1267" d="M291 229Q291 179 320 148T408 117Q474 117 544 156T661 256T707 371V584Q643 521 560 471T423 397T330 331T291 229ZM1276 313Q1276 213 1255 144T1194 39T1107 -12T997 -27Q930 -27 872 -1T773
83T723 223Q680 114 578 44T356 -27Q233 -27 156 38T78 219Q78 279 105 328T176 411T277 474T392 525T507 573T608 625T680 688T707 772Q707 886 651 941T494 997Q423 997 359 975T260 913Q324 913 361 879T399 797Q399 734 358 695T260 655Q201 655 157 696T113
817Q113 858 139 905T215 998T350 1072T537 1102Q619 1102 686 1084T807 1025T892 913T922 743V283Q922 244 931 209T969 144T1040 115Q1167 115 1167 293V442H1276V313ZM825 1468Q781 1423 644 1357T392 1248L278 1204L249 1243Q330 1312 448 1403T646 1550L724
1607L825 1468Z" />
<glyph unicode="&#xe2;" glyph-name="acircumflex" horiz-adv-x="1267" d="M291 229Q291 179 320 148T408 117Q474 117 544 156T661 256T707 371V584Q643 521 560 471T423 397T330 331T291 229ZM1276 313Q1276 213 1255 144T1194 39T1107 -12T997 -27Q930 -27
872 -1T773 83T723 223Q680 114 578 44T356 -27Q233 -27 156 38T78 219Q78 279 105 328T176 411T277 474T392 525T507 573T608 625T680 688T707 772Q707 886 651 941T494 997Q423 997 359 975T260 913Q324 913 361 879T399 797Q399 734 358 695T260 655Q201 655
157 696T113 817Q113 858 139 905T215 998T350 1072T537 1102Q619 1102 686 1084T807 1025T892 913T922 743V283Q922 244 931 209T969 144T1040 115Q1167 115 1167 293V442H1276V313ZM536 1477Q501 1446 445 1379T348 1260L309 1208L210 1300L536 1651L864 1294L765
1204Q614 1407 536 1477Z" />
<glyph unicode="&#xe3;" glyph-name="atilde" horiz-adv-x="1267" d="M291 229Q291 179 320 148T408 117Q474 117 544 156T661 256T707 371V584Q643 521 560 471T423 397T330 331T291 229ZM1276 313Q1276 213 1255 144T1194 39T1107 -12T997 -27Q930 -27 872 -1T773
83T723 223Q680 114 578 44T356 -27Q233 -27 156 38T78 219Q78 279 105 328T176 411T277 474T392 525T507 573T608 625T680 688T707 772Q707 886 651 941T494 997Q423 997 359 975T260 913Q324 913 361 879T399 797Q399 734 358 695T260 655Q201 655 157 696T113
817Q113 858 139 905T215 998T350 1072T537 1102Q619 1102 686 1084T807 1025T892 913T922 743V283Q922 244 931 209T969 144T1040 115Q1167 115 1167 293V442H1276V313ZM704 1298Q663 1298 541 1251T362 1204Q270 1204 232 1259T194 1447H282Q282 1396 301 1376T370
1355Q411 1355 533 1402T712 1449Q804 1449 842 1394T880 1206H792Q792 1257 773 1277T704 1298Z" />
<glyph unicode="&#xe4;" glyph-name="adieresis" horiz-adv-x="1267" d="M291 229Q291 179 320 148T408 117Q474 117 544 156T661 256T707 371V584Q643 521 560 471T423 397T330 331T291 229ZM1276 313Q1276 213 1255 144T1194 39T1107 -12T997 -27Q930 -27 872
-1T773 83T723 223Q680 114 578 44T356 -27Q233 -27 156 38T78 219Q78 279 105 328T176 411T277 474T392 525T507 573T608 625T680 688T707 772Q707 886 651 941T494 997Q423 997 359 975T260 913Q324 913 361 879T399 797Q399 734 358 695T260 655Q201 655 157
696T113 817Q113 858 139 905T215 998T350 1072T537 1102Q619 1102 686 1084T807 1025T892 913T922 743V283Q922 244 931 209T969 144T1040 115Q1167 115 1167 293V442H1276V313ZM161 1341Q161 1398 201 1439T298 1480Q354 1480 394 1439T435 1341Q435 1286 395
1245T298 1204Q241 1204 201 1244T161 1341ZM636 1341Q636 1398 676 1439T773 1480Q829 1480 871 1439T913 1341Q913 1286 871 1245T773 1204Q716 1204 676 1244T636 1341Z" />
<glyph unicode="&#xe5;" glyph-name="aring" horiz-adv-x="1267" d="M291 229Q291 179 320 148T408 117Q474 117 544 156T661 256T707 371V584Q643 521 560 471T423 397T330 331T291 229ZM1276 313Q1276 213 1255 144T1194 39T1107 -12T997 -27Q930 -27 872 -1T773
83T723 223Q680 114 578 44T356 -27Q233 -27 156 38T78 219Q78 279 105 328T176 411T277 474T392 525T507 573T608 625T680 688T707 772Q707 886 651 941T494 997Q423 997 359 975T260 913Q324 913 361 879T399 797Q399 734 358 695T260 655Q201 655 157 696T113
817Q113 858 139 905T215 998T350 1072T537 1102Q619 1102 686 1084T807 1025T892 913T922 743V283Q922 244 931 209T969 144T1040 115Q1167 115 1167 293V442H1276V313ZM583 1514T538 1514T459 1480T425 1387T458 1295T536 1262T615 1295T649 1387Q649 1446 616
1480ZM337 1387Q337 1466 391 1517T538 1569Q629 1569 683 1518T737 1387T683 1256T538 1204Q446 1204 392 1255T337 1387Z" />
<glyph unicode="&#xe6;" glyph-name="ae" horiz-adv-x="1728" d="M273 245Q273 190 306 154T395 117Q467 117 531 147T637 223T703 311T737 389L733 508Q493 452 383 392T273 245ZM963 651L1440 729Q1440 832 1384 908T1239 985Q1128 985 1052 892T963 651ZM1673
334Q1634 167 1519 69T1234 -29Q1090 -29 976 63T827 266Q765 136 645 54T369 -29Q245 -29 164 37T82 219Q82 261 94 298T126 365T177 421T241 467T317 506T399 537T486 563T571 585T656 604T733 623V772Q733 884 668 940T498 997Q428 997 367 975T270 913Q335
913 374 879T414 797Q414 735 369 695T264 655Q203 655 160 700T117 834Q117 945 235 1023T516 1102Q801 1102 891 913Q955 1013 1040 1058T1245 1104Q1326 1104 1392 1072T1501 989T1571 876T1612 755T1624 643L963 547Q963 510 971 460T1001 350T1054 240T1136
157T1251 123Q1353 123 1438 187T1556 371L1673 334Z" />
<glyph unicode="&#xe7;" glyph-name="ccedilla" horiz-adv-x="1118" d="M643 -290Q643 -326 615 -356T548 -405T469 -435T401 -453L373 -458L344 -387Q402 -377 446 -359T490 -321Q490 -300 443 -254T395 -182Q395 -124 456 -69T604 -14H643V-290ZM74 516Q74 632
109 736T210 922T381 1053T616 1102Q689 1102 762 1081T898 1018T1000 908T1040 752Q1040 692 999 641T883 590Q818 590 774 628T729 731Q729 796 775 832T883 868Q850 921 790 955T651 989Q564 989 495 951T385 849T323 708T301 549Q301 356 390 246T637 135Q698
135 754 160T849 224T914 300T950 371L1063 334Q1025 170 902 72T592 -27Q485 -27 390 11T225 119T115 291T74 516Z" />
<glyph unicode="&#xe8;" glyph-name="egrave" horiz-adv-x="1150" d="M310 659H854Q850 804 775 893T590 983Q480 983 401 894T310 659ZM74 523Q74 613 95 698T159 856T262 984T405 1070T584 1102Q686 1102 774 1066T928 962T1033 788T1074 551H303V543Q303 457
321 383T377 250T475 157T617 123Q721 123 812 188T936 371L1053 334Q1014 169 894 71T596 -27Q474 -27 373 19T208 144T109 319T74 523ZM296 1470L397 1609Q690 1401 872 1245L843 1206Q825 1213 794 1224T681 1269T530 1333T393 1402T296 1470Z" />
<glyph unicode="&#xe9;" glyph-name="eacute" horiz-adv-x="1150" d="M310 659H854Q850 804 775 893T590 983Q480 983 401 894T310 659ZM74 523Q74 613 95 698T159 856T262 984T405 1070T584 1102Q686 1102 774 1066T928 962T1033 788T1074 551H303V543Q303 457
321 383T377 250T475 157T617 123Q721 123 812 188T936 371L1053 334Q1014 169 894 71T596 -27Q474 -27 373 19T208 144T109 319T74 523ZM872 1470Q828 1425 691 1359T440 1250L325 1206L296 1245Q377 1314 495 1405T692 1552L771 1609L872 1470Z" />
<glyph unicode="&#xea;" glyph-name="ecircumflex" horiz-adv-x="1150" d="M573 1479Q538 1448 482 1381T386 1262L346 1210L247 1302L573 1653L901 1296L802 1206Q651 1409 573 1479ZM310 659H854Q850 804 775 893T590 983Q480 983 401 894T310 659ZM74 523Q74
613 95 698T159 856T262 984T405 1070T584 1102Q686 1102 774 1066T928 962T1033 788T1074 551H303V543Q303 457 321 383T377 250T475 157T617 123Q721 123 812 188T936 371L1053 334Q1014 169 894 71T596 -27Q474 -27 373 19T208 144T109 319T74 523Z" />
<glyph unicode="&#xeb;" glyph-name="edieresis" horiz-adv-x="1150" d="M198 1343Q198 1400 238 1441T335 1482Q391 1482 431 1441T472 1343Q472 1288 431 1247T335 1206Q278 1206 238 1246T198 1343ZM673 1343Q673 1400 713 1441T810 1482Q866 1482 908 1441T950
1343Q950 1288 908 1247T810 1206Q753 1206 713 1246T673 1343ZM310 659H854Q850 804 775 893T590 983Q480 983 401 894T310 659ZM74 523Q74 613 95 698T159 856T262 984T405 1070T584 1102Q686 1102 774 1066T928 962T1033 788T1074 551H303V543Q303 457 321 383T377
250T475 157T617 123Q721 123 812 188T936 371L1053 334Q1014 169 894 71T596 -27Q474 -27 373 19T208 144T109 319T74 523Z" />
<glyph unicode="&#xec;" glyph-name="igrave" horiz-adv-x="671" d="M461 1073V117H657V0H53V117H246V961H51V1073H461ZM-32 1468L69 1607Q362 1399 544 1243L515 1204Q497 1211 466 1222T353 1267T202 1331T65 1400T-32 1468Z" />
<glyph unicode="&#xed;" glyph-name="iacute" horiz-adv-x="671" d="M661 1468Q617 1423 480 1357T228 1248L114 1204L85 1243Q166 1312 284 1403T482 1550L560 1607L661 1468ZM461 1073V117H657V0H53V117H246V961H51V1073H461Z" />
<glyph unicode="&#xee;" glyph-name="icircumflex" horiz-adv-x="671" d="M353 1477Q318 1446 262 1379T166 1260L126 1208L27 1300L353 1651L681 1294L582 1204Q431 1407 353 1477ZM461 1073V117H657V0H53V117H246V961H51V1073H461Z" />
<glyph unicode="&#xef;" glyph-name="idieresis" horiz-adv-x="671" d="M-22 1341Q-22 1398 18 1439T115 1480Q171 1480 211 1439T252 1341Q252 1286 211 1245T115 1204Q58 1204 18 1244T-22 1341ZM453 1341Q453 1398 493 1439T590 1480Q646 1480 688 1439T730
1341Q730 1286 688 1245T590 1204Q533 1204 493 1244T453 1341ZM461 1073V117H657V0H53V117H246V961H51V1073H461Z" />
<glyph unicode="&#xf0;" glyph-name="eth" horiz-adv-x="1245" d="M246 1495Q358 1520 451 1520Q698 1520 870 1367L1126 1487L1161 1403L937 1297Q1035 1179 1086 1012T1137 647Q1137 501 1111 386T1039 196T928 71T787 1T623 -20Q517 -20 431 11T289 93T195
213T140 354T123 502Q123 601 154 691T243 855T397 972T612 1016Q660 1016 701 1008T772 983T821 954T863 921T891 897Q888 916 881 948T838 1064T754 1211L547 1114L512 1198L689 1281Q559 1397 377 1397Q338 1397 266 1386L246 1495ZM913 598Q913 735 837 807T623
879Q506 879 429 763T352 489Q352 380 379 296T470 158T629 104Q778 104 845 226T913 598Z" />
<glyph unicode="&#xf1;" glyph-name="ntilde" horiz-adv-x="1359" d="M865 1298Q824 1298 702 1251T523 1204Q431 1204 393 1259T355 1447H443Q443 1396 462 1376T531 1355Q572 1355 694 1402T873 1449Q965 1449 1003 1394T1041 1206H953Q953 1257 934 1277T865
1298ZM641 0H49V112H244V961H49V1073L428 1090L453 872Q502 984 603 1043T809 1102Q839 1102 866 1099T927 1086T990 1059T1048 1012T1096 943T1128 844T1141 713V112H1346V0H743V112H926V711Q926 841 875 903T735 965Q677 965 630 944T552 886T499 800T469 697T459
586V112H641V0Z" />
<glyph unicode="&#xf2;" glyph-name="ograve" horiz-adv-x="1189" d="M695 983T596 983T430 922T333 759T303 524Q303 332 382 216T598 100Q732 100 809 216T887 524Q887 659 858 759T762 921ZM598 -27Q358 -27 216 132T74 537Q74 697 135 824T316 1027T596 1102Q716
1102 815 1059T979 939T1080 760T1116 537Q1116 378 1056 251T876 49T598 -27ZM308 1468L409 1607Q702 1399 884 1243L855 1204Q837 1211 806 1222T693 1267T542 1331T405 1400T308 1468Z" />
<glyph unicode="&#xf3;" glyph-name="oacute" horiz-adv-x="1189" d="M695 983T596 983T430 922T333 759T303 524Q303 332 382 216T598 100Q732 100 809 216T887 524Q887 659 858 759T762 921ZM598 -27Q358 -27 216 132T74 537Q74 697 135 824T316 1027T596 1102Q716
1102 815 1059T979 939T1080 760T1116 537Q1116 378 1056 251T876 49T598 -27ZM884 1468Q840 1423 703 1357T452 1248L337 1204L308 1243Q389 1312 507 1403T704 1550L783 1607L884 1468Z" />
<glyph unicode="&#xf4;" glyph-name="ocircumflex" horiz-adv-x="1189" d="M594 1477Q559 1446 503 1379T406 1260L367 1208L268 1300L594 1651L922 1294L823 1204Q672 1407 594 1477ZM695 983T596 983T430 922T333 759T303 524Q303 332 382 216T598 100Q732 100
809 216T887 524Q887 659 858 759T762 921ZM598 -27Q358 -27 216 132T74 537Q74 697 135 824T316 1027T596 1102Q716 1102 815 1059T979 939T1080 760T1116 537Q1116 378 1056 251T876 49T598 -27Z" />
<glyph unicode="&#xf5;" glyph-name="otilde" horiz-adv-x="1189" d="M762 1298Q721 1298 599 1251T420 1204Q328 1204 290 1259T252 1447H340Q340 1396 359 1376T428 1355Q469 1355 591 1402T770 1449Q862 1449 900 1394T938 1206H850Q850 1257 831 1277T762
1298ZM695 983T596 983T430 922T333 759T303 524Q303 332 382 216T598 100Q732 100 809 216T887 524Q887 659 858 759T762 921ZM598 -27Q358 -27 216 132T74 537Q74 697 135 824T316 1027T596 1102Q716 1102 815 1059T979 939T1080 760T1116 537Q1116 378 1056
251T876 49T598 -27Z" />
<glyph unicode="&#xf6;" glyph-name="odieresis" horiz-adv-x="1189" d="M219 1341Q219 1398 259 1439T356 1480Q412 1480 452 1439T493 1341Q493 1286 453 1245T356 1204Q299 1204 259 1244T219 1341ZM694 1341Q694 1398 734 1439T831 1480Q887 1480 929 1439T971
1341Q971 1286 929 1245T831 1204Q774 1204 734 1244T694 1341ZM695 983T596 983T430 922T333 759T303 524Q303 332 382 216T598 100Q732 100 809 216T887 524Q887 659 858 759T762 921ZM598 -27Q358 -27 216 132T74 537Q74 697 135 824T316 1027T596 1102Q716
1102 815 1059T979 939T1080 760T1116 537Q1116 378 1056 251T876 49T598 -27Z" />
<glyph unicode="&#xf7;" glyph-name="divide" horiz-adv-x="913" d="M338 942Q338 996 375 1034T467 1073Q520 1073 559 1035T598 942Q598 890 559 852T467 813Q413 813 376 851T338 942ZM338 268Q338 322 375 360T467 399Q520 399 559 361T598 268Q598 216 559
178T467 139Q413 139 376 177T338 268ZM788 528H125V684H788V528Z" />
<glyph unicode="&#xf8;" glyph-name="oslash" horiz-adv-x="1189" d="M857 760L387 210Q467 100 598 100Q732 100 809 216T887 524Q887 663 857 760ZM596 983Q497 983 430 922T333 759T303 524T343 290L820 848Q744 983 596 983ZM1112 1190L1178 1137L994 921Q1116
767 1116 537Q1116 378 1056 251T876 49T598 -27Q409 -27 274 78L113 -111L47 -57L212 136Q74 293 74 537Q74 697 135 824T316 1027T596 1102Q799 1102 935 983L1112 1190Z" />
<glyph unicode="&#xf9;" glyph-name="ugrave" horiz-adv-x="1286" d="M881 -29V197Q755 -27 520 -27Q485 -27 453 -22T380 -4T306 37T245 105T200 211T184 360V961H-4V1073H399V362Q399 229 441 171T573 112Q636 112 706 150T825 250T874 375V961H692V1073H1090V113L1284
92V0L881 -29ZM255 1468L356 1607Q649 1399 831 1243L802 1204Q784 1211 753 1222T640 1267T489 1331T352 1400T255 1468Z" />
<glyph unicode="&#xfa;" glyph-name="uacute" horiz-adv-x="1286" d="M881 -29V197Q755 -27 520 -27Q485 -27 453 -22T380 -4T306 37T245 105T200 211T184 360V961H-4V1073H399V362Q399 229 441 171T573 112Q636 112 706 150T825 250T874 375V961H692V1073H1090V113L1284
92V0L881 -29ZM831 1468Q787 1423 650 1357T398 1248L284 1204L255 1243Q336 1312 454 1403T652 1550L730 1607L831 1468Z" />
<glyph unicode="&#xfb;" glyph-name="ucircumflex" horiz-adv-x="1286" d="M639 1477Q604 1446 548 1379T452 1260L412 1208L313 1300L639 1651L967 1294L868 1204Q717 1407 639 1477ZM881 -29V197Q755 -27 520 -27Q485 -27 453 -22T380 -4T306 37T245 105T200
211T184 360V961H-4V1073H399V362Q399 229 441 171T573 112Q636 112 706 150T825 250T874 375V961H692V1073H1090V113L1284 92V0L881 -29Z" />
<glyph unicode="&#xfc;" glyph-name="udieresis" horiz-adv-x="1286" d="M264 1341Q264 1398 304 1439T401 1480Q457 1480 497 1439T538 1341Q538 1286 497 1245T401 1204Q344 1204 304 1244T264 1341ZM739 1341Q739 1398 779 1439T876 1480Q932 1480 974 1439T1016
1341Q1016 1286 974 1245T876 1204Q819 1204 779 1244T739 1341ZM881 -29V197Q755 -27 520 -27Q485 -27 453 -22T380 -4T306 37T245 105T200 211T184 360V961H-4V1073H399V362Q399 229 441 171T573 112Q636 112 706 150T825 250T874 375V961H692V1073H1090V113L1284
92V0L881 -29Z" />
<glyph unicode="&#xfd;" glyph-name="yacute" horiz-adv-x="1280" d="M360 -467Q222 -467 136 -405T49 -244Q49 -174 95 -129T221 -84Q283 -84 314 -126T346 -229Q346 -266 322 -294T262 -340Q304 -362 328 -362Q416 -362 476 -284T569 -23L172 961H-27V1073H590V961H408L698
176L946 961H780V1073H1294V961H1122L778 -4Q689 -261 592 -364T360 -467ZM921 1468Q877 1423 740 1357T488 1248L374 1204L345 1243Q426 1312 544 1403T742 1550L820 1607L921 1468Z" />
<glyph unicode="&#xfe;" glyph-name="thorn" horiz-adv-x="1275" d="M956 551Q956 661 927 755T836 912T692 975Q572 975 497 851T422 532Q422 451 437 375T483 233T568 126T692 86Q761 86 814 127T897 237T941 385T956 551ZM430 901Q484 999 567 1050T756 1102Q881
1102 980 1027T1132 823T1186 539Q1186 289 1063 131T731 -27Q642 -27 565 15T436 133V-279H657V-401H-14V-281H221V1423H27V1536H430V901Z" />
<glyph unicode="&#xff;" glyph-name="ydieresis" horiz-adv-x="1280" d="M258 1341Q258 1398 298 1439T395 1480Q451 1480 491 1439T532 1341Q532 1286 491 1245T395 1204Q338 1204 298 1244T258 1341ZM733 1341Q733 1398 773 1439T870 1480Q926 1480 968 1439T1010
1341Q1010 1286 968 1245T870 1204Q813 1204 773 1244T733 1341ZM360 -467Q222 -467 136 -405T49 -244Q49 -174 95 -129T221 -84Q283 -84 314 -126T346 -229Q346 -266 322 -294T262 -340Q304 -362 328 -362Q416 -362 476 -284T569 -23L172 961H-27V1073H590V961H408L698
176L946 961H780V1073H1294V961H1122L778 -4Q689 -261 592 -364T360 -467Z" />
</font>
</defs>
</svg>
